<svg xmlns="http://www.w3.org/2000/svg" width="35" height="59.5" viewBox="0 0 70 59.5">
  <path id="Icon_awesome-bars" data-name="Icon awesome-bars" d="M2.429,15.147H65.571A2.428,2.428,0,0,0,68,12.719V6.647a2.428,2.428,0,0,0-2.429-2.429H2.429A2.428,2.428,0,0,0,0,6.647v6.071A2.428,2.428,0,0,0,2.429,15.147Zm0,24.286H65.571A2.428,2.428,0,0,0,68,37V30.933A2.428,2.428,0,0,0,65.571,28.5H2.429A2.428,2.428,0,0,0,0,30.933V37A2.428,2.428,0,0,0,2.429,39.433Zm0,24.286H65.571A2.428,2.428,0,0,0,68,61.29V55.219a2.428,2.428,0,0,0-2.429-2.429H2.429A2.428,2.428,0,0,0,0,55.219V61.29A2.428,2.428,0,0,0,2.429,63.719Z" transform="translate(0 -4.219)"/>
</svg>
